<svg xmlns="http://www.w3.org/2000/svg" viewBox="0 0 792.05 947.03"><defs><style>.cls-1,.cls-2,.cls-3{stroke:#000;stroke-miterlimit:10;}.cls-1{stroke-width:40px;}.cls-2{stroke-width:100px;}.cls-3{stroke-width:80px;}</style></defs><g id="Layer_2" data-name="Layer 2"><path class="cls-1" d="M416,571" transform="translate(-147.59 -43.14)"/></g><g id="Layer_3" data-name="Layer 3"><path class="cls-2" d="M443.94,93.14q184.83,0,315.26,123.94T889.64,516.66q0,175.64-130.44,299.57T443.94,940.17a484.84,484.84,0,0,1-111.27-12.92q-28.43-7-28.44-35.25v-1.17q0-17.62,14.85-28.19a39.05,39.05,0,0,1,32.75-6.47,401.92,401.92,0,0,0,92.11,10.58q152.09,0,260.25-102.22Q812.37,661.75,812.36,516.66T704.19,268.76Q596,166,443.94,166a382.37,382.37,0,0,0-92.11,11.17,39,39,0,0,1-32.75-6.47q-14.83-11.16-14.85-28.19v-1.76q0-27.61,28.44-34.66A485.39,485.39,0,0,1,443.94,93.14Z" transform="translate(-147.59 -43.14)"/><path class="cls-1" d="M494,458.54q24.33,23.11,24.34,55.89V584.1a8.77,8.77,0,0,1-2.9,6.58,9.72,9.72,0,0,1-6.93,2.76H508a9.72,9.72,0,0,1-6.93-2.76,8.77,8.77,0,0,1-2.9-6.58V566.8q-31.59,26.64-63,26.64-34.5,0-58.83-23.12T352,514.43q0-32.77,24.34-55.89t58.83-23.12Q469.68,435.42,494,458.54ZM390.54,472.17q-18.37,17.61-18.37,42.26,0,24.81,18.37,42.41,18.54,17.46,44.65,17.46t44.49-17.46q18.52-17.6,18.53-42.41,0-24.66-18.53-42.26-18.23-17.61-44.49-17.61T390.54,472.17Z" transform="translate(-147.59 -43.14)"/><path class="cls-3" d="M490,280.79q15.44,3.82,15.44,18.81v1q0,9.24-8,15.3a21.18,21.18,0,0,1-17.79,3.51,207.61,207.61,0,0,0-50-6.06q-82.56,0-141.31,55.8T229.55,503.68q0,78.77,58.74,134.56Q347,693.73,429.6,693.73a219,219,0,0,0,50-5.74,21.18,21.18,0,0,1,17.79,3.51,17.87,17.87,0,0,1,8,15.3v.64q0,15.3-15.44,19.13a263.31,263.31,0,0,1-60.42,7q-100.36,0-171.18-67.29T187.59,503.68q0-95.34,70.83-162.63T429.6,273.77A263.31,263.31,0,0,1,490,280.79Z" transform="translate(-147.59 -43.14)"/></g></svg>